ffmpeg version 6.1.1-3ubuntu5 Copyright (c) 2000-2023 the FFmpeg developers
  built with gcc 13 (Ubuntu 13.2.0-23ubuntu3)
  configuration: --prefix=/usr --extra-version=3ubuntu5 --toolchain=hardened --libdir=/usr/lib/x86_64-linux-gnu --incdir=/usr/include/x86_64-linux-gnu --arch=amd64 --enable-gpl --disable-stripping --disable-omx --enable-gnutls --enable-libaom --enable-libass --enable-libbs2b --enable-libcaca --enable-libcdio --enable-libcodec2 --enable-libdav1d --enable-libflite --enable-libfontconfig --enable-libfreetype --enable-libfribidi --enable-libglslang --enable-libgme --enable-libgsm --enable-libharfbuzz --enable-libmp3lame --enable-libmysofa --enable-libopenjpeg --enable-libopenmpt --enable-libopus --enable-librubberband --enable-libshine --enable-libsnappy --enable-libsoxr --enable-libspeex --enable-libtheora --enable-libtwolame --enable-libvidstab --enable-libvorbis --enable-libvpx --enable-libwebp --enable-libx265 --enable-libxml2 --enable-libxvid --enable-libzimg --enable-openal --enable-opencl --enable-opengl --disable-sndio --enable-libvpl --disable-libmfx --enable-libdc1394 --enable-libdrm --enable-libiec61883 --enable-chromaprint --enable-frei0r --enable-ladspa --enable-libbluray --enable-libjack --enable-libpulse --enable-librabbitmq --enable-librist --enable-libsrt --enable-libssh --enable-libsvtav1 --enable-libx264 --enable-libzmq --enable-libzvbi --enable-lv2 --enable-sdl2 --enable-libplacebo --enable-librav1e --enable-pocketsphinx --enable-librsvg --enable-libjxl --enable-shared
  libavutil      58. 29.100 / 58. 29.100
  libavcodec     60. 31.102 / 60. 31.102
  libavformat    60. 16.100 / 60. 16.100
  libavdevice    60.  3.100 / 60.  3.100
  libavfilter     9. 12.100 /  9. 12.100
  libswscale      7.  5.100 /  7.  5.100
  libswresample   4. 12.100 /  4. 12.100
  libpostproc    57.  3.100 / 57.  3.100
Input #0, rtsp, from 'rtsp://admin:1234Qwer@192.168.21.10:554/Streaming/Channels/101':
  Metadata:
    title           : Media Presentation
  Duration: N/A, start: 1744216083.786000, bitrate: N/A
  Stream #0:0: Video: hevc (Main), yuvj420p(pc, bt709), 1920x1080, 90k tbr, 90k tbn
Stream mapping:
  Stream #0:0 -> #0:0 (hevc (native) -> h264 (libx264))
Press [q] to stop, [?] for help
[libx264 @ 0x5d5962d8ea40] MB rate (734400000) > level limit (16711680)
[libx264 @ 0x5d5962d8ea40] using cpu capabilities: MMX2 SSE2Fast SSSE3 SSE4.2 AVX FMA3 BMI2 AVX2
[libx264 @ 0x5d5962d8ea40] profile High, level 6.2, 4:2:0, 8-bit
[libx264 @ 0x5d5962d8ea40] 264 - core 164 r3108 31e19f9 - H.264/MPEG-4 AVC codec - Copyleft 2003-2023 - http://www.videolan.org/x264.html - options: cabac=1 ref=2 deblock=1:0:0 analyse=0x3:0x113 me=hex subme=6 psy=1 psy_rd=1.00:0.00 mixed_ref=1 me_range=16 chroma_me=1 trellis=1 8x8dct=1 cqm=0 deadzone=21,11 fast_pskip=1 chroma_qp_offset=-2 threads=18 lookahead_threads=3 sliced_threads=0 nr=0 decimate=1 interlaced=0 bluray_compat=0 constrained_intra=0 bframes=3 b_pyramid=2 b_adapt=1 b_bias=0 direct=1 weightb=1 open_gop=0 weightp=1 keyint=250 keyint_min=25 scenecut=40 intra_refresh=0 rc_lookahead=30 rc=crf mbtree=1 crf=23.0 qcomp=0.60 qpmin=0 qpmax=69 qpstep=4 ip_ratio=1.40 aq=1:1.00
Output #0, matroska, to 'data/videos/stream2_1744216083.mkv':
  Metadata:
    title           : Media Presentation
    encoder         : Lavf60.16.100
  Stream #0:0: Video: h264 (H264 / 0x34363248), yuvj420p(pc, bt709, progressive), 1920x1080, q=2-31, 90k fps, 1k tbn
    Metadata:
      encoder         : Lavc60.31.102 libx264
    Side data:
      cpb: bitrate max/min/avg: 0/0/0 buffer size: 0 vbv_delay: N/A
frame=    0 fps=0.0 q=0.0 size=       0kB time=N/A bitrate=N/A speed=N/A    frame=    0 fps=0.0 q=0.0 size=       0kB time=N/A bitrate=N/A speed=N/A    frame=    0 fps=0.0 q=0.0 size=       0kB time=N/A bitrate=N/A speed=N/A    frame=    0 fps=0.0 q=0.0 size=       0kB time=N/A bitrate=N/A speed=N/A    frame=   11 fps=5.2 q=30.0 size=       1kB time=00:00:00.33 bitrate=  15.2kbits/s speed=0.159x    frame=   24 fps=9.1 q=28.0 size=       1kB time=00:00:00.85 bitrate=   6.0kbits/s speed=0.325x    frame=   37 fps= 12 q=30.0 size=       1kB time=00:00:01.35 bitrate=   3.8kbits/s speed=0.43x    frame=   50 fps= 14 q=29.0 size=       1kB time=00:00:01.87 bitrate=   2.7kbits/s speed=0.507x    frame=   63 fps= 15 q=29.0 size=       1kB time=00:00:02.43 bitrate=   2.1kbits/s speed=0.578x    frame=   76 fps= 16 q=29.0 size=       1kB time=00:00:02.93 bitrate=   1.7kbits/s speed=0.623x    frame=   89 fps= 17 q=28.0 size=       1kB time=00:00:03.46 bitrate=   1.5kbits/s speed=0.662x    frame=  102 fps= 18 q=28.0 size=       1kB time=00:00:03.97 bitrate=   1.3kbits/s speed=0.687x    frame=  115 fps= 18 q=28.0 size=       1kB time=00:00:04.49 bitrate=   1.1kbits/s speed=0.715x    frame=  128 fps= 19 q=31.0 size=    2560kB time=00:00:05.03 bitrate=4164.7kbits/s speed=0.74x    frame=  141 fps= 19 q=30.0 size=    2560kB time=00:00:05.53 bitrate=3788.4kbits/s speed=0.756x    frame=  154 fps= 20 q=27.0 size=    2560kB time=00:00:06.05 bitrate=3463.0kbits/s speed=0.77x    frame=  168 fps= 20 q=28.0 size=    2560kB time=00:00:06.63 bitrate=3160.4kbits/s speed=0.79x    frame=  181 fps= 20 q=29.0 size=    2560kB time=00:00:07.14 bitrate=2936.6kbits/s speed=0.801x    frame=  193 fps= 20 q=28.0 size=    2560kB time=00:00:07.62 bitrate=2749.9kbits/s speed=0.81x    frame=  206 fps= 21 q=28.0 size=    2560kB time=00:00:08.15 bitrate=2571.3kbits/s speed=0.821x    frame=  219 fps= 21 q=29.0 size=    2560kB time=00:00:08.67 bitrate=2417.0kbits/s speed=0.83x    frame=  232 fps= 21 q=31.0 size=    2560kB time=00:00:09.17 bitrate=2285.5kbits/s speed=0.835x    frame=  245 fps= 21 q=28.0 size=    2560kB time=00:00:09.69 bitrate=2162.8kbits/s speed=0.844x    frame=  258 fps= 21 q=28.0 size=    4864kB time=00:00:10.23 bitrate=3892.7kbits/s speed=0.852x    frame=  271 fps= 22 q=29.0 size=    4864kB time=00:00:10.75 bitrate=3704.0kbits/s speed=0.858x    frame=  284 fps= 22 q=31.0 size=    4864kB time=00:00:11.27 bitrate=3533.5kbits/s speed=0.863x    frame=  297 fps= 22 q=28.0 size=    4864kB time=00:00:11.80 bitrate=3376.0kbits/s speed=0.869x    frame=  310 fps= 22 q=28.0 size=    4864kB time=00:00:12.32 bitrate=3232.7kbits/s speed=0.874x    frame=  323 fps= 22 q=29.0 size=    4864kB time=00:00:12.82 bitrate=3106.7kbits/s speed=0.876x    frame=  337 fps= 22 q=28.0 size=    4864kB time=00:00:13.39 bitrate=2974.6kbits/s speed=0.883x    frame=  350 fps= 22 q=28.0 size=    4864kB time=00:00:13.92 bitrate=2861.3kbits/s speed=0.887x    frame=  363 fps= 22 q=30.0 size=    4864kB time=00:00:14.44 bitrate=2758.1kbits/s speed=0.89x    frame=  376 fps= 22 q=28.0 size=    4864kB time=00:00:14.96 bitrate=2662.4kbits/s speed=0.894x    frame=  389 fps= 23 q=30.0 size=    7424kB time=00:00:15.50 bitrate=3922.1kbits/s speed=0.897x    frame=  403 fps= 23 q=28.0 size=    7424kB time=00:00:16.00 bitrate=3800.6kbits/s speed=0.899x    frame=  415 fps= 23 q=28.0 size=    7424kB time=00:00:16.51 bitrate=3682.3kbits/s speed=0.902x    frame=  428 fps= 23 q=30.0 size=    7424kB time=00:00:17.04 bitrate=3568.0kbits/s speed=0.905x    frame=  442 fps= 23 q=29.0 size=    7424kB time=00:00:17.57 bitrate=3460.0kbits/s speed=0.908x    frame=  454 fps= 23 q=27.0 size=    7424kB time=00:00:18.09 bitrate=3360.7kbits/s speed=0.91x    frame=  467 fps= 23 q=29.0 size=    7424kB time=00:00:18.61 bitrate=3266.9kbits/s speed=0.913x    frame=  480 fps= 23 q=29.0 size=    7424kB time=00:00:19.14 bitrate=3176.1kbits/s speed=0.915x    frame=  493 fps= 23 q=30.0 size=    7424kB time=00:00:19.65 bitrate=3093.9kbits/s speed=0.917x    frame=  506 fps= 23 q=28.0 size=    9984kB time=00:00:20.17 bitrate=4053.8kbits/s speed=0.918x    frame=  519 fps= 23 q=27.0 size=    9984kB time=00:00:20.68 bitrate=3953.5kbits/s speed=0.92x    frame=  532 fps= 23 q=28.0 size=    9984kB time=00:00:21.21 bitrate=3855.1kbits/s speed=0.923x    frame=  545 fps= 23 q=30.0 size=    9984kB time=00:00:21.75 bitrate=3759.4kbits/s speed=0.925x    frame=  558 fps= 23 q=29.0 size=    9984kB time=00:00:22.27 bitrate=3671.5kbits/s speed=0.926x    frame=  571 fps= 23 q=30.0 size=    9984kB time=00:00:22.77 bitrate=3590.4kbits/s speed=0.926x    frame=  584 fps= 23 q=28.0 size=    9984kB time=00:00:23.30 bitrate=3509.9kbits/s speed=0.928x    frame=  597 fps= 23 q=28.0 size=    9984kB time=00:00:23.82 bitrate=3433.2kbits/s speed=0.93x    frame=  610 fps= 23 q=28.0 size=    9984kB time=00:00:24.34 bitrate=3359.2kbits/s speed=0.931x    frame=  623 fps= 23 q=28.0 size=    9984kB time=00:00:24.86 bitrate=3289.2kbits/s speed=0.933x    frame=  636 fps= 23 q=28.0 size=   12544kB time=00:00:25.38 bitrate=4047.9kbits/s speed=0.934x    frame=  649 fps= 23 q=28.0 size=   12544kB time=00:00:25.92 bitrate=3963.6kbits/s speed=0.936x    frame=  662 fps= 23 q=28.0 size=   12544kB time=00:00:26.44 bitrate=3885.7kbits/s speed=0.938x    frame=  674 fps= 23 q=30.0 size=   12544kB time=00:00:26.92 bitrate=3816.4kbits/s speed=0.937x    frame=  687 fps= 24 q=30.0 size=   12544kB time=00:00:27.44 bitrate=3744.0kbits/s speed=0.939x    frame=  701 fps= 24 q=28.0 size=   12544kB time=00:00:27.96 bitrate=3674.5kbits/s speed=0.94x    frame=  713 fps= 24 q=30.0 size=   12544kB time=00:00:28.46 bitrate=3609.9kbits/s speed=0.94x    frame=  727 fps= 24 q=29.0 size=   12544kB time=00:00:28.98 bitrate=3545.1kbits/s speed=0.942x    frame=  740 fps= 24 q=28.0 size=   12544kB time=00:00:29.52 bitrate=3480.2kbits/s speed=0.943x    frame=  751 fps= 24 q=28.0 size=   12544kB time=00:00:30.00 bitrate=3424.6kbits/s speed=0.943x    frame=  764 fps= 24 q=31.0 size=   15104kB time=00:00:30.52 bitrate=4053.2kbits/s speed=0.945x    frame=  777 fps= 24 q=28.0 size=   15104kB time=00:00:31.04 bitrate=3985.9kbits/s speed=0.945x    frame=  791 fps= 24 q=28.0 size=   15104kB time=00:00:31.58 bitrate=3917.7kbits/s speed=0.947x    frame=  804 fps= 24 q=29.0 size=   15104kB time=00:00:32.07 bitrate=3857.3kbits/s speed=0.947x    frame=  817 fps= 24 q=30.0 size=   15104kB time=00:00:32.62 bitrate=3792.4kbits/s speed=0.948x    frame=  830 fps= 24 q=28.0 size=   15104kB time=00:00:33.16 bitrate=3730.6kbits/s speed=0.949x    frame=  844 fps= 24 q=29.0 size=   15104kB time=00:00:33.70 bitrate=3670.9kbits/s speed=0.95x    frame=  856 fps= 24 q=27.0 size=   15104kB time=00:00:34.22 bitrate=3615.1kbits/s speed=0.951x    frame=  870 fps= 24 q=28.0 size=   15104kB time=00:00:34.74 bitrate=3561.1kbits/s speed=0.951x    frame=  882 fps= 24 q=28.0 size=   17664kB time=00:00:35.27 bitrate=4102.1kbits/s speed=0.952x    frame=  895 fps= 24 q=28.0 size=   17664kB time=00:00:35.77 bitrate=4044.7kbits/s speed=0.952x    frame=  909 fps= 24 q=28.0 size=   17664kB time=00:00:36.32 bitrate=3983.5kbits/s speed=0.952x    frame=  922 fps= 24 q=29.0 size=   17664kB time=00:00:36.84 bitrate=3927.1kbits/s speed=0.953x    frame=  936 fps= 24 q=28.0 size=   17664kB time=00:00:37.38 bitrate=3870.4kbits/s speed=0.954x    frame=  949 fps= 24 q=30.0 size=   17664kB time=00:00:37.90 bitrate=3817.3kbits/s speed=0.955x    frame=  961 fps= 24 q=31.0 size=   17664kB time=00:00:38.42 bitrate=3765.7kbits/s speed=0.955x    frame=  974 fps= 24 q=31.0 size=   17664kB time=00:00:38.93 bitrate=3716.4kbits/s speed=0.956x    frame=  987 fps= 24 q=29.0 size=   17664kB time=00:00:39.45 bitrate=3667.4kbits/s speed=0.956x    frame= 1000 fps= 24 q=29.0 size=   17664kB time=00:00:39.98 bitrate=3618.8kbits/s speed=0.957x    frame= 1013 fps= 24 q=28.0 size=   20224kB time=00:00:40.49 bitrate=4090.8kbits/s speed=0.957x    frame= 1026 fps= 24 q=28.0 size=   20224kB time=00:00:41.03 bitrate=4037.3kbits/s speed=0.958x    frame= 1039 fps= 24 q=28.0 size=   20224kB time=00:00:41.55 bitrate=3986.7kbits/s speed=0.959x    frame= 1052 fps= 24 q=28.0 size=   20224kB time=00:00:42.07 bitrate=3937.4kbits/s speed=0.959x    frame= 1065 fps= 24 q=28.0 size=   20224kB time=00:00:42.59 bitrate=3889.9kbits/s speed=0.959x    frame= 1078 fps= 24 q=28.0 size=   20224kB time=00:00:43.10 bitrate=3843.4kbits/s speed=0.96x    frame= 1091 fps= 24 q=31.0 size=   20224kB time=00:00:43.63 bitrate=3796.7kbits/s speed=0.961x    frame= 1104 fps= 24 q=28.0 size=   20224kB time=00:00:44.14 bitrate=3752.9kbits/s speed=0.961x    frame= 1117 fps= 24 q=28.0 size=   20224kB time=00:00:44.68 bitrate=3707.5kbits/s speed=0.962x    frame= 1129 fps= 24 q=28.0 size=   22784kB time=00:00:45.16 bitrate=4132.3kbits/s speed=0.962x    frame= 1142 fps= 24 q=28.0 size=   22784kB time=00:00:45.68 bitrate=4085.4kbits/s speed=0.962x    frame= 1155 fps= 24 q=28.0 size=   22784kB time=00:00:46.20 bitrate=4039.4kbits/s speed=0.963x    frame= 1168 fps= 24 q=28.0 size=   22784kB time=00:00:46.73 bitrate=3993.6kbits/s speed=0.963x    frame= 1181 fps= 24 q=29.0 size=   22784kB time=00:00:47.23 bitrate=3951.2kbits/s speed=0.963x    frame= 1194 fps= 24 q=30.0 size=   22784kB time=00:00:47.76 bitrate=3907.4kbits/s speed=0.964x    frame= 1208 fps= 24 q=28.0 size=   22784kB time=00:00:48.32 bitrate=3862.1kbits/s speed=0.964x    frame= 1221 fps= 24 q=28.0 size=   22784kB time=00:00:48.84 bitrate=3821.0kbits/s speed=0.965x    frame= 1234 fps= 24 q=28.0 size=   22784kB time=00:00:49.37 bitrate=3780.1kbits/s speed=0.965x    frame= 1247 fps= 24 q=28.0 size=   22784kB time=00:00:49.89 bitrate=3740.6kbits/s speed=0.965x    frame= 1260 fps= 24 q=28.0 size=   25344kB time=00:00:50.43 bitrate=4116.9kbits/s speed=0.966x    frame= 1273 fps= 24 q=29.0 size=   25344kB time=00:00:50.92 bitrate=4076.9kbits/s speed=0.966x    frame= 1286 fps= 24 q=28.0 size=   25344kB time=00:00:51.44 bitrate=4035.6kbits/s speed=0.966x    frame= 1299 fps= 24 q=29.0 size=   25344kB time=00:00:51.97 bitrate=3994.5kbits/s speed=0.967x    frame= 1312 fps= 24 q=27.0 size=   25344kB time=00:00:52.49 bitrate=3954.9kbits/s speed=0.967x    frame= 1325 fps= 24 q=29.0 size=   25344kB time=00:00:53.01 bitrate=3915.9kbits/s speed=0.967x    frame= 1340 fps= 24 q=30.0 size=   25344kB time=00:00:53.59 bitrate=3873.8kbits/s speed=0.968x    frame= 1353 fps= 24 q=28.0 size=   25344kB time=00:00:54.10 bitrate=3837.5kbits/s speed=0.968x    frame= 1365 fps= 24 q=28.0 size=   25344kB time=00:00:54.63 bitrate=3800.0kbits/s speed=0.968x    frame= 1378 fps= 24 q=29.0 size=   27904kB time=00:00:55.15 bitrate=4144.4kbits/s speed=0.969x    frame= 1391 fps= 24 q=28.0 size=   27904kB time=00:00:55.68 bitrate=4105.0kbits/s speed=0.969x    frame= 1404 fps= 24 q=29.0 size=   27904kB time=00:00:56.17 bitrate=4069.1kbits/s speed=0.969x    frame= 1417 fps= 24 q=28.0 size=   27904kB time=00:00:56.71 bitrate=4030.3kbits/s speed=0.969x    frame= 1430 fps= 24 q=28.0 size=   27904kB time=00:00:57.23 bitrate=3993.6kbits/s speed=0.97x    frame= 1443 fps= 24 q=29.0 size=   27904kB time=00:00:57.75 bitrate=3957.8kbits/s speed=0.97x    frame= 1456 fps= 24 q=28.0 size=   27904kB time=00:00:58.27 bitrate=3922.5kbits/s speed=0.97x    frame= 1469 fps= 24 q=30.0 size=   27904kB time=00:00:58.79 bitrate=3887.8kbits/s speed=0.97x    frame= 1482 fps= 24 q=27.0 size=   27904kB time=00:00:59.30 bitrate=3854.3kbits/s speed=0.97x    frame= 1495 fps= 24 q=28.0 size=   27904kB time=00:00:59.85 bitrate=3819.0kbits/s speed=0.971x    frame= 1508 fps= 24 q=29.0 size=   30208kB time=00:01:00.34 bitrate=4100.6kbits/s speed=0.971x    frame= 1521 fps= 24 q=29.0 size=   30208kB time=00:01:00.88 bitrate=4064.3kbits/s speed=0.971x    frame= 1534 fps= 24 q=28.0 size=   30208kB time=00:01:01.40 bitrate=4030.3kbits/s speed=0.972x    frame= 1547 fps= 24 q=28.0 size=   30208kB time=00:01:01.91 bitrate=3996.8kbits/s speed=0.971x    frame= 1561 fps= 24 q=29.0 size=   30208kB time=00:01:02.47 bitrate=3960.9kbits/s speed=0.972x    frame= 1574 fps= 24 q=28.0 size=   30208kB time=00:01:02.99 bitrate=3928.3kbits/s speed=0.972x    frame= 1587 fps= 24 q=28.0 size=   30208kB time=00:01:03.53 bitrate=3894.8kbits/s speed=0.973x    frame= 1600 fps= 24 q=28.0 size=   30208kB time=00:01:04.05 bitrate=3863.1kbits/s speed=0.973x    frame= 1612 fps= 24 q=28.0 size=   30208kB time=00:01:04.55 bitrate=3833.4kbits/s speed=0.973x    frame= 1625 fps= 24 q=28.0 size=   32768kB time=00:01:05.05 bitrate=4126.1kbits/s speed=0.973x    frame= 1638 fps= 24 q=28.0 size=   32768kB time=00:01:05.57 bitrate=4093.6kbits/s speed=0.973x    frame= 1651 fps= 24 q=28.0 size=   32768kB time=00:01:06.11 bitrate=4060.2kbits/s speed=0.974x    frame= 1664 fps= 24 q=27.0 size=   32768kB time=00:01:06.63 bitrate=4028.5kbits/s speed=0.974x    frame= 1677 fps= 24 q=28.0 size=   32768kB time=00:01:07.13 bitrate=3998.4kbits/s speed=0.974x    frame= 1690 fps= 24 q=28.0 size=   32768kB time=00:01:07.66 bitrate=3967.0kbits/s speed=0.974x    frame= 1703 fps= 24 q=30.0 size=   32768kB time=00:01:08.19 bitrate=3936.4kbits/s speed=0.975x    frame= 1716 fps= 24 q=29.0 size=   32768kB time=00:01:08.69 bitrate=3907.8kbits/s speed=0.974x    frame= 1729 fps= 24 q=29.0 size=   32768kB time=00:01:09.23 bitrate=3877.3kbits/s speed=0.975x    frame= 1742 fps= 24 q=28.0 size=   32768kB time=00:01:09.73 bitrate=3849.5kbits/s speed=0.975x    frame= 1755 fps= 24 q=28.0 size=   35328kB time=00:01:10.27 bitrate=4118.3kbits/s speed=0.975x    frame= 1768 fps= 24 q=31.0 size=   35328kB time=00:01:10.79 bitrate=4088.1kbits/s speed=0.975x    frame= 1781 fps= 24 q=28.0 size=   35328kB time=00:01:11.30 bitrate=4058.6kbits/s speed=0.975x    frame= 1794 fps= 24 q=28.0 size=   35328kB time=00:01:11.85 bitrate=4027.9kbits/s speed=0.976x    frame= 1808 fps= 24 q=28.0 size=   35328kB time=00:01:12.39 bitrate=3997.8kbits/s speed=0.976x    